<svg id="svg" version="1.1" preserveAspectRatio="xMidYMid" height="48" viewBox="0 0 400 121.01616628175519" xmlns="http://www.w3.org/2000/svg" xmlns:xlink="http://www.w3.org/1999/xlink" ><g id="svgg"><path id="path0" d="M141.417 10.824 C 132.901 11.652,125.066 14.185,119.000 18.070 C 106.701 25.949,99.012 37.038,96.166 51.001 C 94.500 59.180,95.223 69.166,98.042 76.917 C 101.963 87.696,108.525 96.057,117.917 102.244 C 120.218 103.760,125.809 106.667,126.424 106.667 C 126.484 106.667,126.769 106.777,127.058 106.911 C 135.468 110.830,149.416 111.310,159.833 108.037 C 191.740 98.015,204.956 60.132,186.185 32.500 C 176.338 18.005,158.146 9.197,141.417 10.824 M151.417 22.144 C 165.188 24.711,176.345 33.656,181.068 45.917 C 181.315 46.558,181.583 47.233,181.663 47.417 C 183.061 50.611,183.750 54.929,183.750 60.500 C 183.750 66.231,183.203 69.604,181.588 73.833 C 173.831 94.151,152.247 104.236,131.833 97.080 C 122.828 93.923,114.591 86.618,110.336 78.013 C 109.113 75.540,108.666 74.440,107.962 72.166 C 101.268 50.542,114.023 28.034,136.000 22.688 C 137.207 22.394,138.401 22.186,141.250 21.771 C 142.702 21.559,149.647 21.815,151.417 22.144 " stroke="none" fill="#058c0d" fill-rule="evenodd"></path><path id="path1" d="M251.167 10.769 C 218.307 13.707,197.238 45.317,207.488 76.298 C 215.738 101.233,242.620 115.603,267.863 108.571 C 304.116 98.473,316.640 54.237,291.114 26.449 C 281.304 15.769,265.337 9.502,251.167 10.769 M259.500 21.989 C 283.178 25.091,298.437 47.961,292.145 70.917 C 285.965 93.469,260.971 105.422,239.372 96.155 C 216.145 86.188,208.573 56.760,224.076 36.709 C 232.402 25.941,246.127 20.238,259.500 21.989 " stroke="none" fill="#d40505" fill-rule="evenodd"></path><path id="path2" d="M55.167 0.500 C 55.167 0.592,54.810 0.666,54.375 0.666 C 53.226 0.666,49.931 1.025,49.833 1.161 C 49.788 1.225,49.076 1.371,48.253 1.484 C 47.430 1.597,46.678 1.755,46.582 1.834 C 46.487 1.914,46.016 2.031,45.538 2.094 C 45.059 2.158,44.667 2.261,44.667 2.324 C 44.667 2.387,44.160 2.537,43.542 2.658 C 42.923 2.778,42.342 2.935,42.250 3.007 C 42.158 3.078,41.802 3.189,41.458 3.254 C 41.115 3.318,40.833 3.425,40.833 3.492 C 40.833 3.559,40.421 3.712,39.917 3.833 C 39.412 3.954,39.000 4.102,39.000 4.162 C 39.000 4.221,38.625 4.366,38.167 4.484 C 37.708 4.601,37.333 4.757,37.333 4.830 C 37.333 4.903,37.071 5.012,36.750 5.072 C 36.429 5.133,36.167 5.245,36.167 5.323 C 36.167 5.400,35.960 5.512,35.708 5.571 C 35.069 5.721,33.667 6.386,33.667 6.539 C 33.667 6.609,33.565 6.667,33.441 6.667 C 33.198 6.667,31.637 7.459,31.500 7.652 C 31.454 7.716,31.154 7.874,30.833 8.003 C 30.512 8.132,30.175 8.298,30.083 8.371 C 29.646 8.722,28.635 9.333,28.493 9.333 C 28.405 9.333,28.333 9.394,28.333 9.469 C 28.333 9.543,28.074 9.706,27.757 9.831 C 27.440 9.955,27.142 10.156,27.096 10.278 C 27.049 10.400,26.896 10.500,26.755 10.500 C 26.615 10.500,26.500 10.566,26.500 10.646 C 26.500 10.727,26.275 10.886,26.000 11.000 C 25.725 11.114,25.500 11.275,25.500 11.359 C 25.500 11.442,25.369 11.558,25.208 11.616 C 25.048 11.674,24.804 11.824,24.667 11.949 C 24.025 12.535,23.402 13.000,23.250 13.007 C 23.158 13.011,22.899 13.236,22.674 13.507 C 22.450 13.778,22.172 14.000,22.058 14.000 C 21.943 14.000,21.790 14.095,21.717 14.212 C 21.643 14.329,21.139 14.798,20.597 15.254 C 19.327 16.322,16.322 19.327,15.254 20.597 C 14.798 21.139,14.329 21.643,14.212 21.717 C 14.095 21.790,14.000 21.943,14.000 22.058 C 14.000 22.172,13.778 22.450,13.507 22.674 C 13.236 22.899,13.011 23.148,13.007 23.226 C 13.001 23.357,12.480 24.062,11.943 24.667 C 11.821 24.804,11.674 25.048,11.616 25.208 C 11.558 25.369,11.438 25.500,11.350 25.500 C 11.261 25.500,11.144 25.641,11.090 25.814 C 11.035 25.986,10.844 26.305,10.665 26.522 C 10.486 26.739,10.278 26.992,10.202 27.083 C 10.127 27.175,9.957 27.494,9.825 27.792 C 9.693 28.090,9.529 28.333,9.459 28.333 C 9.390 28.333,9.333 28.405,9.333 28.493 C 9.333 28.635,8.722 29.646,8.371 30.083 C 8.298 30.175,8.132 30.512,8.003 30.833 C 7.874 31.154,7.716 31.454,7.652 31.500 C 7.465 31.633,6.667 33.195,6.667 33.428 C 6.667 33.544,6.610 33.664,6.542 33.694 C 6.336 33.786,5.717 35.043,5.591 35.625 C 5.526 35.923,5.408 36.167,5.328 36.167 C 5.247 36.167,5.133 36.429,5.072 36.750 C 5.012 37.071,4.903 37.333,4.830 37.333 C 4.757 37.333,4.601 37.708,4.484 38.167 C 4.366 38.625,4.221 39.000,4.162 39.000 C 4.102 39.000,3.954 39.412,3.833 39.917 C 3.712 40.421,3.557 40.833,3.488 40.833 C 3.419 40.833,3.312 41.133,3.250 41.499 C 3.188 41.865,3.076 42.203,3.001 42.250 C 2.925 42.296,2.770 42.859,2.655 43.501 C 2.540 44.142,2.393 44.667,2.328 44.667 C 2.263 44.667,2.158 45.059,2.094 45.538 C 2.031 46.016,1.914 46.487,1.834 46.582 C 1.755 46.678,1.597 47.430,1.484 48.253 C 1.371 49.076,1.225 49.788,1.161 49.833 C 1.025 49.931,0.666 53.226,0.666 54.375 C 0.666 54.810,0.592 55.167,0.500 55.167 C 0.286 55.167,0.272 65.554,0.485 65.961 C 0.568 66.120,0.724 67.337,0.831 68.665 C 0.938 69.993,1.082 71.118,1.152 71.165 C 1.221 71.212,1.371 71.924,1.484 72.747 C 1.597 73.570,1.755 74.322,1.834 74.418 C 1.914 74.513,2.031 74.984,2.094 75.462 C 2.158 75.941,2.263 76.333,2.328 76.333 C 2.393 76.333,2.540 76.858,2.655 77.499 C 2.770 78.141,2.925 78.704,3.001 78.750 C 3.076 78.797,3.188 79.135,3.250 79.501 C 3.312 79.867,3.417 80.167,3.483 80.167 C 3.549 80.167,3.702 80.560,3.823 81.042 C 3.944 81.523,4.101 81.992,4.171 82.083 C 4.241 82.175,4.394 82.569,4.509 82.958 C 4.625 83.348,4.774 83.667,4.841 83.667 C 4.908 83.667,5.012 83.929,5.072 84.250 C 5.133 84.571,5.245 84.833,5.323 84.833 C 5.400 84.833,5.512 85.040,5.571 85.292 C 5.721 85.931,6.386 87.333,6.539 87.333 C 6.609 87.333,6.667 87.426,6.667 87.539 C 6.667 87.817,7.525 89.500,7.667 89.500 C 7.729 89.500,7.879 89.800,8.000 90.167 C 8.121 90.533,8.274 90.833,8.340 90.833 C 8.406 90.833,8.559 91.077,8.681 91.375 C 8.803 91.673,8.981 92.008,9.076 92.119 C 9.449 92.553,9.592 92.768,9.833 93.250 C 10.096 93.776,10.143 93.845,10.665 94.478 C 10.844 94.695,11.035 95.014,11.090 95.186 C 11.144 95.359,11.261 95.500,11.349 95.500 C 11.436 95.500,11.580 95.688,11.667 95.917 C 11.754 96.146,11.897 96.333,11.985 96.333 C 12.072 96.333,12.198 96.502,12.263 96.708 C 12.328 96.915,12.520 97.181,12.691 97.301 C 12.861 97.421,13.000 97.609,13.000 97.720 C 13.000 97.830,13.225 98.106,13.500 98.333 C 13.775 98.560,14.000 98.837,14.000 98.948 C 14.000 99.059,14.095 99.210,14.212 99.283 C 14.329 99.357,14.798 99.860,15.254 100.402 C 16.352 101.706,19.349 104.707,20.592 105.746 C 21.137 106.202,21.643 106.671,21.717 106.788 C 21.790 106.905,21.924 107.000,22.014 107.000 C 22.104 107.000,22.398 107.225,22.667 107.500 C 22.935 107.775,23.214 108.000,23.286 108.000 C 23.415 108.000,24.168 108.582,24.681 109.078 C 24.826 109.218,25.028 109.333,25.131 109.333 C 25.233 109.333,25.377 109.427,25.450 109.542 C 25.623 109.812,26.605 110.500,26.818 110.500 C 26.909 110.500,27.043 110.594,27.117 110.708 C 27.276 110.958,27.723 111.251,28.458 111.589 C 28.756 111.726,29.000 111.904,29.000 111.984 C 29.000 112.065,29.182 112.176,29.405 112.232 C 29.628 112.288,29.912 112.427,30.038 112.542 C 30.296 112.778,30.680 112.992,33.250 114.334 C 34.258 114.860,35.327 115.344,35.625 115.409 C 35.923 115.473,36.167 115.592,36.167 115.672 C 36.167 115.753,36.429 115.867,36.750 115.928 C 37.071 115.988,37.333 116.097,37.333 116.170 C 37.333 116.243,37.708 116.399,38.167 116.516 C 38.625 116.634,39.000 116.791,39.000 116.865 C 39.000 116.939,39.117 117.000,39.259 117.000 C 39.402 117.000,39.833 117.142,40.217 117.314 C 40.602 117.487,41.179 117.684,41.500 117.750 C 41.821 117.817,42.158 117.928,42.250 117.998 C 42.342 118.067,42.923 118.222,43.542 118.342 C 44.160 118.463,44.667 118.614,44.667 118.678 C 44.667 118.742,45.079 118.846,45.583 118.909 C 46.087 118.972,46.500 119.085,46.500 119.160 C 46.500 119.235,47.250 119.391,48.167 119.508 C 49.083 119.625,49.833 119.777,49.833 119.845 C 49.833 119.914,50.490 120.023,51.292 120.088 C 52.094 120.153,52.855 120.291,52.984 120.395 C 53.320 120.666,346.680 120.666,347.016 120.395 C 347.145 120.291,347.906 120.153,348.708 120.088 C 349.510 120.023,350.167 119.914,350.167 119.845 C 350.167 119.777,350.917 119.625,351.833 119.508 C 352.750 119.391,353.500 119.238,353.500 119.167 C 353.500 119.096,353.912 118.987,354.417 118.924 C 354.921 118.861,355.333 118.752,355.333 118.681 C 355.333 118.611,355.858 118.460,356.499 118.345 C 357.141 118.230,357.702 118.077,357.748 118.004 C 357.793 117.931,358.112 117.818,358.456 117.754 C 358.801 117.689,359.398 117.493,359.783 117.318 C 360.167 117.143,360.594 117.000,360.731 117.000 C 360.868 117.000,361.020 116.935,361.069 116.856 C 361.118 116.777,361.498 116.617,361.912 116.501 C 362.327 116.385,362.667 116.233,362.667 116.164 C 362.667 116.094,362.929 115.988,363.250 115.928 C 363.571 115.867,363.833 115.753,363.833 115.672 C 363.833 115.592,364.068 115.475,364.356 115.412 C 364.643 115.349,365.235 115.118,365.672 114.898 C 366.108 114.679,366.542 114.500,366.635 114.500 C 366.729 114.500,366.831 114.444,366.861 114.375 C 366.910 114.265,367.490 113.932,369.242 113.009 C 369.513 112.867,369.837 112.656,369.962 112.542 C 370.088 112.427,370.372 112.288,370.595 112.232 C 370.818 112.176,371.000 112.065,371.000 111.984 C 371.000 111.904,371.244 111.726,371.542 111.589 C 372.078 111.342,372.673 110.994,372.833 110.833 C 372.879 110.787,373.254 110.524,373.667 110.250 C 374.079 109.976,374.477 109.657,374.550 109.542 C 374.623 109.427,374.767 109.333,374.869 109.333 C 374.972 109.333,375.174 109.221,375.319 109.084 C 375.817 108.615,376.631 108.000,376.756 108.000 C 376.825 108.000,377.096 107.775,377.358 107.500 C 377.621 107.225,377.894 107.000,377.964 107.000 C 378.035 107.000,378.209 106.869,378.352 106.708 C 378.495 106.548,378.936 106.154,379.333 105.833 C 380.251 105.091,384.667 100.705,384.667 100.535 C 384.667 100.465,384.798 100.286,384.958 100.137 C 385.436 99.693,386.000 99.043,386.000 98.936 C 386.000 98.881,386.225 98.621,386.500 98.358 C 386.775 98.096,387.000 97.796,387.000 97.692 C 387.000 97.588,387.150 97.409,387.333 97.295 C 387.517 97.180,387.667 96.991,387.667 96.875 C 387.667 96.759,387.817 96.535,388.000 96.378 C 388.183 96.221,388.333 96.000,388.333 95.888 C 388.333 95.775,388.427 95.623,388.542 95.550 C 388.657 95.477,388.976 95.079,389.250 94.667 C 389.524 94.254,389.787 93.879,389.833 93.833 C 389.879 93.787,390.030 93.525,390.167 93.250 C 390.304 92.975,390.492 92.659,390.583 92.547 C 390.675 92.436,390.835 92.243,390.938 92.118 C 391.041 91.993,391.177 91.729,391.241 91.530 C 391.304 91.331,391.444 91.072,391.553 90.954 C 391.730 90.760,392.262 89.821,392.991 88.417 C 393.133 88.142,393.306 87.892,393.375 87.861 C 393.444 87.831,393.500 87.729,393.500 87.635 C 393.500 87.542,393.679 87.108,393.898 86.672 C 394.118 86.235,394.349 85.643,394.412 85.356 C 394.475 85.068,394.592 84.833,394.672 84.833 C 394.753 84.833,394.867 84.571,394.928 84.250 C 394.988 83.929,395.094 83.667,395.164 83.667 C 395.233 83.667,395.385 83.327,395.501 82.912 C 395.617 82.498,395.777 82.118,395.856 82.069 C 395.935 82.020,396.000 81.868,396.000 81.731 C 396.000 81.594,396.143 81.167,396.318 80.783 C 396.493 80.398,396.689 79.801,396.754 79.456 C 396.818 79.112,396.931 78.793,397.004 78.748 C 397.077 78.702,397.230 78.141,397.345 77.499 C 397.460 76.858,397.611 76.333,397.681 76.333 C 397.752 76.333,397.861 75.921,397.924 75.417 C 397.987 74.912,398.096 74.500,398.167 74.500 C 398.238 74.500,398.391 73.750,398.508 72.833 C 398.625 71.917,398.777 71.167,398.845 71.167 C 398.914 71.167,399.023 70.510,399.088 69.708 C 399.153 68.906,399.291 68.145,399.395 68.016 C 399.529 67.850,399.583 65.668,399.583 60.500 C 399.583 55.332,399.529 53.150,399.395 52.984 C 399.291 52.855,399.153 52.094,399.088 51.292 C 399.023 50.490,398.914 49.833,398.845 49.833 C 398.777 49.833,398.625 49.083,398.508 48.167 C 398.391 47.250,398.235 46.500,398.160 46.500 C 398.085 46.500,397.972 46.088,397.909 45.583 C 397.846 45.079,397.741 44.667,397.674 44.667 C 397.608 44.667,397.460 44.142,397.345 43.501 C 397.230 42.859,397.077 42.298,397.004 42.252 C 396.931 42.207,396.818 41.888,396.754 41.544 C 396.689 41.199,396.493 40.602,396.318 40.217 C 396.143 39.833,396.000 39.402,396.000 39.259 C 396.000 39.117,395.939 39.000,395.865 39.000 C 395.791 39.000,395.634 38.625,395.516 38.167 C 395.399 37.708,395.243 37.333,395.170 37.333 C 395.097 37.333,394.988 37.071,394.928 36.750 C 394.867 36.429,394.753 36.167,394.672 36.167 C 394.592 36.167,394.473 35.923,394.409 35.625 C 394.344 35.327,393.860 34.258,393.334 33.250 C 391.992 30.680,391.778 30.296,391.542 30.038 C 391.427 29.912,391.289 29.633,391.235 29.417 C 391.181 29.201,391.031 28.984,390.902 28.934 C 390.772 28.884,390.667 28.729,390.667 28.589 C 390.667 28.448,390.610 28.333,390.541 28.333 C 390.471 28.333,390.309 28.090,390.179 27.792 C 390.049 27.494,389.900 27.212,389.846 27.167 C 389.793 27.121,389.524 26.746,389.250 26.333 C 388.976 25.921,388.657 25.523,388.542 25.450 C 388.427 25.377,388.333 25.233,388.333 25.131 C 388.333 25.028,388.221 24.826,388.084 24.681 C 387.643 24.213,387.000 23.372,387.000 23.262 C 387.000 23.203,386.775 22.935,386.500 22.667 C 386.225 22.398,386.000 22.104,386.000 22.014 C 386.000 21.924,385.905 21.790,385.788 21.717 C 385.671 21.643,385.202 21.137,384.746 20.592 C 383.707 19.349,380.706 16.352,379.402 15.254 C 378.860 14.798,378.357 14.329,378.283 14.212 C 378.210 14.095,378.059 14.000,377.948 14.000 C 377.837 14.000,377.560 13.775,377.333 13.500 C 377.106 13.225,376.855 13.000,376.776 13.000 C 376.644 13.000,375.956 12.496,375.333 11.943 C 375.196 11.821,374.952 11.674,374.792 11.616 C 374.631 11.558,374.500 11.438,374.500 11.350 C 374.500 11.261,374.359 11.144,374.186 11.090 C 374.014 11.035,373.695 10.844,373.478 10.665 C 373.261 10.486,373.008 10.278,372.917 10.202 C 372.825 10.127,372.506 9.957,372.208 9.825 C 371.910 9.693,371.667 9.529,371.667 9.459 C 371.667 9.390,371.595 9.333,371.507 9.333 C 371.365 9.333,370.354 8.722,369.917 8.371 C 369.825 8.298,369.488 8.132,369.167 8.003 C 368.846 7.874,368.546 7.716,368.500 7.652 C 368.363 7.459,366.802 6.667,366.559 6.667 C 366.435 6.667,366.333 6.609,366.333 6.539 C 366.333 6.386,364.931 5.721,364.292 5.571 C 364.040 5.512,363.833 5.400,363.833 5.323 C 363.833 5.245,363.571 5.133,363.250 5.072 C 362.929 5.012,362.667 4.908,362.667 4.841 C 362.667 4.774,362.348 4.625,361.958 4.509 C 361.569 4.394,361.175 4.241,361.083 4.171 C 360.992 4.101,360.523 3.944,360.042 3.823 C 359.560 3.702,359.167 3.549,359.167 3.483 C 359.167 3.417,358.867 3.312,358.501 3.250 C 358.135 3.188,357.797 3.076,357.750 3.001 C 357.704 2.925,357.141 2.770,356.499 2.655 C 355.858 2.540,355.333 2.393,355.333 2.328 C 355.333 2.263,354.941 2.158,354.462 2.094 C 353.984 2.031,353.513 1.914,353.418 1.834 C 353.322 1.755,352.570 1.597,351.747 1.484 C 350.924 1.371,350.212 1.221,350.165 1.152 C 350.118 1.082,348.993 0.938,347.665 0.831 C 346.337 0.724,345.120 0.568,344.961 0.485 C 344.545 0.268,55.167 0.283,55.167 0.500 M152.583 11.159 C 186.280 16.654,204.800 52.535,189.622 82.916 C 179.274 103.630,155.832 114.448,133.167 108.970 C 103.834 101.880,87.533 70.232,98.685 42.025 C 105.518 24.742,121.952 12.459,140.500 10.772 C 142.742 10.568,150.479 10.816,152.583 11.159 M262.583 11.236 C 296.162 16.928,314.448 52.720,299.255 83.014 C 286.165 109.115,252.972 118.340,228.202 102.762 C 199.090 84.453,196.829 42.806,223.785 21.377 C 234.495 12.863,249.321 8.988,262.583 11.236 M142.333 21.848 C 114.486 24.233,98.064 53.111,110.451 77.917 C 125.995 109.043,171.972 105.036,182.155 71.667 C 189.989 45.996,168.870 19.576,142.333 21.848 M250.950 21.928 C 221.292 25.012,205.878 59.016,223.229 83.083 C 241.137 107.925,279.569 103.185,290.795 74.750 C 301.396 47.897,279.563 18.953,250.950 21.928 M67.874 57.042 L 67.917 78.083 75.083 78.167 L 82.250 78.250 82.295 81.708 L 82.340 85.167 71.337 85.167 L 60.333 85.167 60.333 60.694 C 60.333 47.235,60.383 36.172,60.444 36.111 C 60.506 36.050,62.193 36.000,64.194 36.000 L 67.832 36.000 67.874 57.042 M334.203 36.256 C 342.809 37.430,347.815 43.829,346.848 52.420 C 345.925 60.627,339.876 65.167,329.862 65.167 L 326.833 65.167 326.833 75.167 L 326.833 85.167 323.083 85.167 L 319.333 85.167 319.333 60.583 L 319.333 36.000 325.828 36.000 C 330.747 36.000,332.778 36.062,334.203 36.256 M326.833 50.583 L 326.833 58.333 328.042 58.330 C 336.357 58.304,339.583 56.115,339.583 50.500 C 339.583 45.100,336.341 42.849,328.542 42.836 L 326.833 42.833 326.833 50.583 " stroke="none" fill="#fbfbfb" fill-rule="evenodd"></path><path id="path3" d="M141.544 10.786 C 141.797 10.825,142.172 10.824,142.377 10.784 C 142.582 10.744,142.375 10.713,141.917 10.714 C 141.458 10.716,141.291 10.748,141.544 10.786 M147.711 10.786 C 147.964 10.825,148.339 10.824,148.544 10.784 C 148.749 10.744,148.542 10.713,148.083 10.714 C 147.625 10.716,147.457 10.748,147.711 10.786 M138.667 11.000 C 138.095 11.120,138.094 11.123,138.583 11.135 C 138.858 11.142,139.383 11.085,139.750 11.010 L 140.417 10.872 139.833 10.874 C 139.512 10.876,138.987 10.932,138.667 11.000 M150.333 11.009 C 150.746 11.082,151.308 11.138,151.583 11.133 C 151.952 11.127,151.887 11.090,151.333 10.991 C 150.921 10.918,150.358 10.862,150.083 10.867 C 149.715 10.873,149.780 10.910,150.333 11.009 M154.250 11.587 C 154.708 11.705,155.233 11.800,155.417 11.798 C 155.600 11.795,155.375 11.697,154.917 11.580 C 154.458 11.462,153.933 11.367,153.750 11.369 C 153.567 11.371,153.792 11.469,154.250 11.587 M134.667 11.667 C 134.106 11.846,134.712 11.846,135.417 11.667 C 135.866 11.552,135.874 11.539,135.500 11.536 C 135.271 11.535,134.896 11.593,134.667 11.667 M132.583 12.167 C 132.373 12.257,132.342 12.310,132.500 12.310 C 132.637 12.310,132.900 12.245,133.083 12.167 C 133.293 12.076,133.324 12.023,133.167 12.023 C 133.029 12.023,132.767 12.088,132.583 12.167 M156.917 12.144 C 157.100 12.224,157.512 12.338,157.833 12.396 C 158.234 12.468,158.312 12.456,158.083 12.356 C 157.900 12.276,157.487 12.162,157.167 12.104 C 156.766 12.032,156.688 12.044,156.917 12.144 M130.250 12.833 C 130.040 12.924,130.009 12.977,130.167 12.977 C 130.304 12.977,130.567 12.912,130.750 12.833 C 130.960 12.743,130.991 12.690,130.833 12.690 C 130.696 12.690,130.433 12.755,130.250 12.833 M159.333 12.833 C 159.471 12.922,159.696 12.995,159.833 12.995 C 160.056 12.995,160.056 12.977,159.833 12.833 C 159.696 12.744,159.471 12.672,159.333 12.672 C 159.111 12.672,159.111 12.690,159.333 12.833 M128.500 13.417 C 128.179 13.540,128.029 13.644,128.167 13.646 C 128.304 13.649,128.642 13.549,128.917 13.423 C 129.560 13.128,129.261 13.124,128.500 13.417 M161.000 13.305 C 161.137 13.390,161.438 13.510,161.667 13.571 C 161.956 13.649,162.007 13.635,161.833 13.528 C 161.696 13.443,161.396 13.324,161.167 13.262 C 160.877 13.185,160.826 13.198,161.000 13.305 M126.667 14.096 L 126.250 14.347 126.667 14.237 C 127.271 14.076,127.668 13.843,127.333 13.844 C 127.196 13.845,126.896 13.958,126.667 14.096 M125.500 14.583 C 125.271 14.714,125.158 14.822,125.250 14.822 C 125.342 14.822,125.604 14.714,125.833 14.583 C 126.063 14.452,126.175 14.345,126.083 14.345 C 125.992 14.345,125.729 14.452,125.500 14.583 M164.667 14.750 C 164.896 14.881,165.158 14.988,165.250 14.988 C 165.342 14.988,165.229 14.881,165.000 14.750 C 164.771 14.619,164.508 14.512,164.417 14.512 C 164.325 14.512,164.438 14.619,164.667 14.750 M124.167 15.167 C 123.846 15.342,123.658 15.486,123.750 15.486 C 123.842 15.486,124.179 15.342,124.500 15.167 C 124.821 14.991,125.008 14.847,124.917 14.847 C 124.825 14.847,124.487 14.991,124.167 15.167 M165.527 15.082 C 165.677 15.233,169.000 16.825,169.000 16.746 C 169.000 16.704,168.251 16.294,167.336 15.835 C 165.820 15.074,165.304 14.859,165.527 15.082 M121.292 16.594 C 120.856 16.821,120.500 17.044,120.500 17.089 C 120.500 17.135,120.875 16.982,121.333 16.750 C 121.792 16.518,122.167 16.291,122.167 16.247 C 122.167 16.137,122.182 16.131,121.292 16.594 M169.250 16.954 C 169.342 17.041,169.792 17.316,170.250 17.566 C 170.708 17.816,170.933 17.898,170.750 17.747 C 170.377 17.441,168.989 16.707,169.250 16.954 M119.792 17.429 C 119.169 17.767,119.207 17.907,119.833 17.583 C 120.108 17.441,120.333 17.289,120.333 17.246 C 120.333 17.138,120.315 17.145,119.792 17.429 M118.542 18.186 C 118.244 18.377,118.000 18.565,118.000 18.604 C 118.000 18.722,118.971 18.182,119.083 18.001 C 119.227 17.767,119.159 17.790,118.542 18.186 M171.489 18.302 C 171.712 18.483,172.125 18.758,172.406 18.913 L 172.917 19.194 172.511 18.865 C 172.288 18.684,171.875 18.409,171.594 18.254 L 171.083 17.972 171.489 18.302 M116.470 19.573 C 114.959 20.628,112.904 22.251,112.738 22.520 C 112.673 22.624,113.325 22.151,114.185 21.469 C 115.046 20.786,116.219 19.911,116.792 19.524 C 117.365 19.137,117.833 18.786,117.833 18.744 C 117.833 18.623,117.821 18.630,116.470 19.573 M173.000 19.224 C 173.000 19.267,173.694 19.799,174.542 20.407 C 175.390 21.015,175.821 21.283,175.501 21.002 C 174.818 20.403,173.000 19.110,173.000 19.224 M177.083 22.361 C 179.165 24.208,181.734 26.808,183.051 28.400 C 184.574 30.240,185.323 31.086,184.983 30.583 C 183.658 28.624,178.672 23.389,176.833 22.028 C 176.272 21.613,176.336 21.697,177.083 22.361 M140.917 21.840 C 140.441 21.909,140.871 21.925,141.917 21.876 C 142.925 21.829,143.781 21.762,143.819 21.728 C 143.933 21.628,141.818 21.709,140.917 21.840 M146.347 21.730 C 146.385 21.765,147.242 21.834,148.250 21.883 C 149.525 21.945,149.804 21.930,149.167 21.836 C 148.212 21.694,146.226 21.620,146.347 21.730 M252.208 21.782 C 252.369 21.823,252.631 21.823,252.792 21.782 C 252.952 21.740,252.821 21.705,252.500 21.705 C 252.179 21.705,252.048 21.740,252.208 21.782 M256.708 21.782 C 256.869 21.823,257.131 21.823,257.292 21.782 C 257.452 21.740,257.321 21.705,257.000 21.705 C 256.679 21.705,256.548 21.740,256.708 21.782 M136.750 22.500 L 136.417 22.643 136.750 22.638 C 136.933 22.636,137.271 22.573,137.500 22.500 L 137.917 22.367 137.500 22.362 C 137.271 22.359,136.933 22.421,136.750 22.500 M152.181 22.395 C 152.219 22.428,152.550 22.501,152.917 22.557 C 153.381 22.628,153.482 22.613,153.250 22.508 C 152.930 22.363,152.037 22.268,152.181 22.395 M110.823 24.159 C 108.554 26.269,105.383 29.964,104.021 32.083 C 103.455 32.964,103.727 32.643,105.069 30.846 C 106.568 28.839,108.228 26.959,110.406 24.802 C 111.591 23.628,112.529 22.669,112.489 22.671 C 112.449 22.674,111.699 23.343,110.823 24.159 M134.523 23.025 C 134.215 23.113,133.993 23.215,134.029 23.251 C 134.065 23.288,134.467 23.215,134.922 23.090 C 135.378 22.965,135.600 22.863,135.417 22.863 C 135.233 22.863,134.831 22.936,134.523 23.025 M221.406 23.375 L 220.917 23.917 221.458 23.427 C 221.963 22.971,222.077 22.833,221.948 22.833 C 221.919 22.833,221.675 23.077,221.406 23.375 M155.417 23.167 C 155.600 23.245,155.862 23.310,156.000 23.310 C 156.158 23.310,156.127 23.257,155.917 23.167 C 155.733 23.088,155.471 23.023,155.333 23.023 C 155.176 23.023,155.207 23.076,155.417 23.167 M132.667 23.619 C 132.529 23.671,132.018 23.860,131.530 24.039 C 131.043 24.219,130.670 24.393,130.703 24.425 C 130.764 24.487,133.023 23.699,133.150 23.572 C 133.245 23.477,132.980 23.503,132.667 23.619 M158.500 24.139 C 158.637 24.224,158.938 24.343,159.167 24.404 C 159.456 24.482,159.507 24.469,159.333 24.361 C 159.196 24.276,158.896 24.157,158.667 24.096 C 158.377 24.018,158.326 24.031,158.500 24.139 M129.500 24.852 C 129.087 25.042,128.571 25.268,128.352 25.353 C 128.133 25.439,127.990 25.545,128.034 25.590 C 128.078 25.634,128.670 25.409,129.349 25.091 C 130.028 24.773,130.508 24.511,130.417 24.510 C 130.325 24.508,129.912 24.663,129.500 24.852 M160.000 24.750 C 160.229 24.881,160.492 24.988,160.583 24.988 C 160.675 24.988,160.563 24.881,160.333 24.750 C 160.104 24.619,159.842 24.512,159.750 24.512 C 159.658 24.512,159.771 24.619,160.000 24.750 M162.787 26.070 C 163.723 26.563,164.773 27.131,165.120 27.333 C 165.700 27.670,165.717 27.672,165.333 27.356 C 164.881 26.983,161.465 25.164,161.229 25.170 C 161.149 25.172,161.850 25.577,162.787 26.070 M126.629 26.234 C 125.661 26.809,125.659 26.919,126.625 26.434 C 127.106 26.192,127.500 25.958,127.500 25.914 C 127.500 25.770,127.262 25.858,126.629 26.234 M291.167 26.552 C 291.167 26.581,291.410 26.825,291.708 27.094 L 292.250 27.583 291.760 27.042 C 291.304 26.537,291.167 26.423,291.167 26.552 M125.125 27.095 C 124.502 27.433,124.540 27.574,125.167 27.250 C 125.442 27.108,125.667 26.956,125.667 26.912 C 125.667 26.805,125.649 26.811,125.125 27.095 M166.167 27.991 C 166.758 28.491,167.317 28.802,167.054 28.486 C 166.947 28.356,166.609 28.112,166.304 27.944 L 165.750 27.639 166.167 27.991 M122.700 28.681 C 122.315 28.964,122.000 29.231,122.000 29.275 C 122.000 29.318,122.337 29.112,122.750 28.815 C 123.424 28.331,123.602 28.167,123.450 28.167 C 123.422 28.167,123.084 28.398,122.700 28.681 M167.601 28.964 C 167.794 29.121,168.562 29.727,169.307 30.310 C 170.895 31.552,173.453 34.068,174.875 35.787 C 176.097 37.265,176.326 37.389,175.219 35.973 C 173.530 33.812,167.971 28.643,167.366 28.672 C 167.302 28.675,167.408 28.807,167.601 28.964 M120.750 30.117 C 118.750 31.684,115.436 35.107,114.007 37.083 C 113.573 37.684,114.098 37.113,115.618 35.333 C 117.180 33.504,118.710 31.997,120.514 30.511 C 121.755 29.488,121.927 29.333,121.825 29.333 C 121.784 29.333,121.300 29.686,120.750 30.117 M186.176 32.458 C 186.742 33.306,187.234 34.000,187.270 34.000 C 187.387 34.000,186.124 32.060,185.631 31.483 C 185.364 31.172,185.610 31.610,186.176 32.458 M227.077 33.208 L 226.250 34.083 227.125 33.256 C 227.606 32.801,228.000 32.408,228.000 32.381 C 228.000 32.257,227.846 32.395,227.077 33.208 M102.708 34.042 C 101.954 35.239,101.627 35.833,101.720 35.833 C 101.756 35.833,102.073 35.365,102.423 34.792 C 102.773 34.219,103.167 33.581,103.299 33.375 C 103.431 33.169,103.499 33.000,103.451 33.000 C 103.403 33.000,103.068 33.469,102.708 34.042 M187.757 34.917 C 188.007 35.375,188.284 35.825,188.374 35.917 C 188.625 36.174,187.896 34.794,187.581 34.417 C 187.428 34.233,187.507 34.458,187.757 34.917 M283.333 34.385 C 283.333 34.414,283.577 34.658,283.875 34.927 L 284.417 35.417 283.927 34.875 C 283.471 34.370,283.333 34.257,283.333 34.385 M60.444 36.111 C 60.383 36.172,60.333 47.235,60.333 60.694 L 60.333 85.167 71.337 85.167 L 82.340 85.167 82.295 81.708 L 82.250 78.250 75.083 78.167 L 67.917 78.083 67.874 57.042 L 67.832 36.000 64.194 36.000 C 62.193 36.000,60.506 36.050,60.444 36.111 M101.092 36.817 C 100.855 37.284,100.693 37.667,100.733 37.667 C 100.855 37.667,101.676 36.121,101.597 36.041 C 101.556 36.000,101.329 36.349,101.092 36.817 M319.333 60.583 L 319.333 85.167 323.083 85.167 L 326.833 85.167 326.833 75.167 L 326.833 65.167 329.862 65.167 C 334.043 65.167,336.569 64.676,339.312 63.332 C 350.649 57.776,349.119 40.205,337.000 36.773 C 334.838 36.160,332.522 36.000,325.828 36.000 L 319.333 36.000 319.333 60.583 M188.750 36.667 C 188.892 36.942,189.046 37.167,189.092 37.167 C 189.138 37.167,189.059 36.942,188.917 36.667 C 188.774 36.392,188.621 36.167,188.575 36.167 C 188.529 36.167,188.608 36.392,188.750 36.667 M177.053 38.699 C 177.631 39.552,178.387 40.756,178.733 41.375 C 179.079 41.994,179.394 42.500,179.434 42.500 C 179.695 42.500,176.586 37.509,176.162 37.247 C 176.074 37.193,176.474 37.846,177.053 38.699 M112.949 38.542 C 112.545 39.115,112.012 39.958,111.765 40.417 C 111.251 41.368,111.352 41.236,112.790 39.068 C 113.963 37.299,114.066 36.957,112.949 38.542 M189.862 38.762 C 190.018 39.275,191.412 42.311,191.466 42.256 C 191.539 42.183,190.254 39.215,189.985 38.833 C 189.887 38.696,189.832 38.664,189.862 38.762 M99.613 39.758 C 99.222 40.579,99.277 40.719,99.686 39.943 C 99.872 39.590,99.995 39.272,99.959 39.236 C 99.923 39.200,99.767 39.435,99.613 39.758 M98.938 41.330 C 98.561 42.270,98.619 42.410,99.015 41.517 C 99.194 41.114,99.311 40.755,99.274 40.719 C 99.238 40.683,99.087 40.957,98.938 41.330 M110.667 42.333 C 110.389 42.883,110.199 43.333,110.245 43.333 C 110.291 43.333,110.556 42.883,110.833 42.333 C 111.111 41.783,111.301 41.333,111.255 41.333 C 111.209 41.333,110.944 41.783,110.667 42.333 M331.833 43.005 C 337.160 43.561,339.583 45.905,339.583 50.500 C 339.583 56.115,336.357 58.304,328.042 58.330 L 326.833 58.333 326.833 50.583 L 326.833 42.833 328.542 42.836 C 329.481 42.838,330.962 42.914,331.833 43.005 M179.682 43.083 C 179.682 43.175,179.900 43.663,180.167 44.167 C 180.433 44.671,180.651 45.008,180.651 44.917 C 180.651 44.825,180.433 44.337,180.167 43.833 C 179.900 43.329,179.682 42.992,179.682 43.083 M97.936 43.936 C 97.788 44.369,97.696 44.752,97.732 44.787 C 97.767 44.823,97.917 44.497,98.064 44.064 C 98.212 43.631,98.304 43.248,98.268 43.213 C 98.233 43.177,98.083 43.503,97.936 43.936 M109.780 44.091 C 109.388 44.912,109.443 45.052,109.853 44.276 C 110.039 43.924,110.161 43.606,110.125 43.570 C 110.089 43.534,109.934 43.768,109.780 44.091 M109.194 45.424 C 108.914 46.037,108.968 46.167,109.270 45.610 C 109.411 45.350,109.495 45.106,109.457 45.068 C 109.419 45.030,109.300 45.190,109.194 45.424 M180.686 45.250 C 180.689 45.342,180.836 45.717,181.012 46.083 C 181.188 46.450,181.286 46.563,181.229 46.333 C 181.111 45.861,180.677 44.995,180.686 45.250 M97.181 46.264 C 97.073 46.691,97.016 47.072,97.054 47.110 C 97.093 47.148,97.212 46.830,97.319 46.403 C 97.427 45.976,97.484 45.595,97.446 45.557 C 97.407 45.518,97.288 45.837,97.181 46.264 M108.667 46.667 C 108.550 46.948,108.494 47.216,108.542 47.264 C 108.589 47.311,108.712 47.109,108.815 46.815 C 108.917 46.520,108.974 46.252,108.940 46.218 C 108.906 46.184,108.783 46.386,108.667 46.667 M192.937 46.833 C 192.996 47.154,193.109 47.567,193.189 47.750 C 193.289 47.979,193.302 47.900,193.229 47.500 C 193.171 47.179,193.058 46.767,192.978 46.583 C 192.877 46.355,192.865 46.433,192.937 46.833 M96.604 48.354 C 96.465 49.049,96.600 49.184,96.750 48.500 C 96.813 48.212,96.830 47.941,96.788 47.899 C 96.745 47.857,96.663 48.061,96.604 48.354 M108.019 48.516 C 107.917 48.810,107.839 49.132,107.845 49.233 C 107.852 49.334,107.964 49.123,108.096 48.765 C 108.227 48.406,108.306 48.083,108.270 48.048 C 108.234 48.012,108.122 48.223,108.019 48.516 M182.025 48.833 C 182.025 48.971,182.126 49.346,182.250 49.667 C 182.374 49.987,182.475 50.137,182.475 50.000 C 182.475 49.862,182.374 49.487,182.250 49.167 C 182.126 48.846,182.025 48.696,182.025 48.833 M193.608 49.500 C 193.664 49.913,193.773 50.400,193.852 50.583 C 194.025 50.987,193.849 49.789,193.644 49.167 C 193.554 48.892,193.542 49.006,193.608 49.500 M107.500 50.250 C 107.383 50.668,107.326 51.048,107.372 51.094 C 107.419 51.141,107.545 50.830,107.653 50.403 C 107.907 49.392,107.777 49.261,107.500 50.250 M96.011 51.011 C 95.901 51.573,95.843 52.065,95.882 52.105 C 95.922 52.144,96.045 51.717,96.156 51.156 C 96.266 50.594,96.324 50.102,96.284 50.062 C 96.245 50.022,96.122 50.449,96.011 51.011 M182.779 51.583 C 182.940 52.595,183.181 53.238,183.059 52.333 C 183.003 51.921,182.893 51.433,182.815 51.250 C 182.723 51.035,182.710 51.154,182.779 51.583 M106.940 52.535 C 106.884 52.745,106.844 53.067,106.852 53.250 C 106.860 53.433,106.935 53.291,107.019 52.933 C 107.182 52.241,107.112 51.892,106.940 52.535 M194.196 52.417 C 194.190 52.600,194.248 53.050,194.324 53.417 C 194.440 53.977,194.462 54.004,194.461 53.583 C 194.460 53.000,194.212 51.904,194.196 52.417 M95.452 54.500 C 95.388 55.004,95.346 55.717,95.357 56.083 C 95.369 56.475,95.437 56.200,95.522 55.417 C 95.687 53.893,95.627 53.110,95.452 54.500 M183.449 55.250 C 183.500 55.800,183.570 56.281,183.604 56.319 C 183.716 56.443,183.631 55.264,183.491 54.750 C 183.402 54.421,183.388 54.592,183.449 55.250 M106.275 57.042 C 106.138 58.179,106.159 63.199,106.304 64.167 C 106.366 64.579,106.417 62.948,106.417 60.542 C 106.417 58.135,106.408 56.167,106.398 56.167 C 106.388 56.167,106.332 56.560,106.275 57.042 M194.750 60.583 C 194.750 63.058,194.797 64.596,194.856 64.000 C 194.993 62.590,194.994 58.363,194.857 57.083 C 194.798 56.533,194.750 58.108,194.750 60.583 M95.220 57.833 C 95.220 58.429,95.250 58.673,95.287 58.375 C 95.324 58.077,95.324 57.590,95.287 57.292 C 95.250 56.994,95.220 57.237,95.220 57.833 M183.712 57.500 C 183.712 57.913,183.745 58.081,183.784 57.875 C 183.824 57.669,183.824 57.331,183.784 57.125 C 183.745 56.919,183.712 57.087,183.712 57.500 M204.875 57.917 C 204.877 58.283,204.911 58.414,204.951 58.206 C 204.991 57.999,204.990 57.699,204.948 57.540 C 204.906 57.380,204.874 57.550,204.875 57.917 M304.545 58.333 C 304.545 58.746,304.578 58.915,304.618 58.708 C 304.657 58.502,304.657 58.165,304.618 57.958 C 304.578 57.752,304.545 57.921,304.545 58.333 M304.545 62.667 C 304.545 63.079,304.578 63.248,304.618 63.042 C 304.657 62.835,304.657 62.498,304.618 62.292 C 304.578 62.085,304.545 62.254,304.545 62.667 M95.220 63.167 C 95.220 63.762,95.250 64.006,95.287 63.708 C 95.324 63.410,95.324 62.923,95.287 62.625 C 95.250 62.327,95.220 62.571,95.220 63.167 M204.875 63.083 C 204.877 63.450,204.911 63.580,204.951 63.373 C 204.991 63.166,204.990 62.866,204.948 62.706 C 204.906 62.547,204.874 62.717,204.875 63.083 M183.712 63.500 C 183.712 63.913,183.745 64.081,183.784 63.875 C 183.824 63.669,183.824 63.331,183.784 63.125 C 183.745 62.919,183.712 63.087,183.712 63.500 M95.346 65.097 C 95.352 65.548,95.421 66.254,95.497 66.667 C 95.596 67.195,95.610 66.974,95.546 65.917 C 95.448 64.283,95.326 63.786,95.346 65.097 M183.436 65.603 C 183.375 66.122,183.358 66.580,183.399 66.621 C 183.439 66.662,183.525 66.272,183.590 65.756 C 183.654 65.240,183.671 64.782,183.627 64.738 C 183.583 64.694,183.497 65.083,183.436 65.603 M194.264 67.847 C 194.201 68.319,194.184 68.739,194.225 68.780 C 194.266 68.821,194.352 68.470,194.417 68.000 C 194.481 67.530,194.499 67.110,194.456 67.067 C 194.413 67.024,194.327 67.375,194.264 67.847 M106.845 67.847 C 106.851 68.069,106.925 68.400,107.008 68.583 C 107.113 68.816,107.128 68.715,107.057 68.250 C 106.939 67.476,106.828 67.265,106.845 67.847 M182.857 68.940 C 182.752 69.462,182.698 69.920,182.735 69.958 C 182.773 69.995,182.892 69.602,183.000 69.083 C 183.108 68.565,183.162 68.107,183.122 68.066 C 183.081 68.025,182.962 68.419,182.857 68.940 M95.869 69.083 C 95.867 69.267,95.962 69.792,96.080 70.250 C 96.197 70.708,96.295 70.933,96.298 70.750 C 96.300 70.567,96.205 70.042,96.087 69.583 C 95.969 69.125,95.871 68.900,95.869 69.083 M107.357 70.083 C 107.358 70.267,107.465 70.679,107.595 71.000 L 107.830 71.583 107.727 71.000 C 107.670 70.679,107.563 70.267,107.489 70.083 L 107.354 69.750 107.357 70.083 M193.667 71.083 C 193.559 71.602,193.504 72.060,193.545 72.101 C 193.586 72.141,193.705 71.748,193.810 71.226 C 193.914 70.705,193.969 70.247,193.931 70.209 C 193.893 70.171,193.774 70.565,193.667 71.083 M182.182 71.515 C 182.069 71.891,182.008 72.230,182.045 72.267 C 182.083 72.305,182.205 72.028,182.318 71.652 C 182.431 71.275,182.492 70.937,182.455 70.899 C 182.417 70.862,182.295 71.139,182.182 71.515 M107.854 71.833 C 107.851 71.971,107.951 72.308,108.077 72.583 C 108.372 73.227,108.376 72.928,108.083 72.167 C 107.960 71.846,107.856 71.696,107.854 71.833 M96.523 72.250 C 96.523 72.433,96.588 72.733,96.667 72.917 L 96.810 73.250 96.810 72.917 C 96.810 72.733,96.745 72.433,96.667 72.250 L 96.523 71.917 96.523 72.250 M181.519 73.519 C 181.276 74.214,181.392 74.330,181.667 73.667 C 181.783 73.386,181.839 73.117,181.792 73.069 C 181.744 73.022,181.621 73.224,181.519 73.519 M193.014 73.764 C 192.906 74.191,192.850 74.572,192.888 74.610 C 192.926 74.648,193.045 74.330,193.153 73.903 C 193.260 73.476,193.317 73.095,193.279 73.057 C 193.241 73.018,193.121 73.337,193.014 73.764 M108.341 73.288 C 108.331 73.545,108.854 74.868,108.933 74.789 C 108.966 74.757,108.847 74.360,108.670 73.907 C 108.494 73.454,108.345 73.176,108.341 73.288 M97.106 74.417 C 97.281 75.210,97.520 75.686,97.398 75.000 C 97.342 74.679,97.228 74.304,97.145 74.167 C 97.047 74.003,97.034 74.090,97.106 74.417 M181.019 74.852 C 180.776 75.547,180.892 75.663,181.167 75.000 C 181.283 74.719,181.339 74.450,181.292 74.403 C 181.244 74.355,181.121 74.557,181.019 74.852 M109.091 75.375 C 109.153 75.581,109.273 75.823,109.357 75.913 C 109.440 76.002,109.425 75.834,109.322 75.538 C 109.110 74.932,108.916 74.795,109.091 75.375 M180.192 76.775 C 179.894 77.379,179.683 77.905,179.722 77.945 C 179.762 77.984,180.029 77.514,180.317 76.900 C 180.996 75.449,180.895 75.348,180.192 76.775 M97.767 76.500 C 97.926 77.146,99.193 80.363,99.262 80.294 C 99.319 80.236,98.173 77.144,97.825 76.417 C 97.689 76.133,97.680 76.145,97.767 76.500 M109.514 76.250 C 109.514 76.342,109.658 76.679,109.833 77.000 C 110.009 77.321,110.153 77.508,110.153 77.417 C 110.153 77.325,110.009 76.987,109.833 76.667 C 109.658 76.346,109.514 76.158,109.514 76.250 M191.871 77.375 C 191.587 78.160,191.627 78.372,191.927 77.679 C 192.064 77.365,192.153 77.041,192.125 76.959 C 192.098 76.877,191.983 77.064,191.871 77.375 M110.333 78.062 C 110.333 78.184,111.196 79.667,111.267 79.667 C 111.307 79.667,111.149 79.292,110.917 78.833 C 110.555 78.119,110.333 77.826,110.333 78.062 M178.739 79.625 C 178.396 80.244,177.643 81.446,177.066 82.296 C 176.489 83.147,176.095 83.794,176.191 83.735 C 176.605 83.479,179.690 78.500,179.434 78.500 C 179.394 78.500,179.082 79.006,178.739 79.625 M190.661 80.379 C 189.820 82.296,189.735 82.520,189.985 82.167 C 190.250 81.790,191.540 78.817,191.468 78.746 C 191.434 78.712,191.071 79.447,190.661 80.379 M111.836 80.750 C 114.027 84.504,118.299 89.168,121.917 91.755 C 122.922 92.474,122.417 92.000,120.917 90.816 C 117.937 88.465,114.972 85.246,112.886 82.098 C 111.689 80.290,111.206 79.671,111.836 80.750 M99.347 80.583 C 99.347 80.675,99.491 81.012,99.667 81.333 C 99.842 81.654,99.986 81.842,99.986 81.750 C 99.986 81.658,99.842 81.321,99.667 81.000 C 99.491 80.679,99.347 80.492,99.347 80.583 M101.083 84.167 C 101.316 84.625,101.543 85.000,101.589 85.000 C 101.635 85.000,101.482 84.625,101.250 84.167 C 101.018 83.708,100.790 83.333,100.744 83.333 C 100.699 83.333,100.851 83.708,101.083 84.167 M188.536 84.708 C 187.311 86.874,187.275 86.945,187.629 86.514 C 188.002 86.060,189.233 83.833,189.111 83.833 C 189.067 83.833,188.809 84.227,188.536 84.708 M173.987 86.255 C 170.822 89.841,167.166 92.656,162.583 95.034 C 161.392 95.652,160.479 96.160,160.554 96.162 C 160.855 96.172,164.773 94.073,166.217 93.129 C 169.186 91.187,172.676 88.116,174.745 85.625 C 175.995 84.119,175.532 84.504,173.987 86.255 M101.917 85.667 C 102.059 85.942,102.213 86.167,102.259 86.167 C 102.304 86.167,102.226 85.942,102.083 85.667 C 101.941 85.392,101.787 85.167,101.741 85.167 C 101.696 85.167,101.774 85.392,101.917 85.667 M102.587 86.761 C 102.742 87.042,103.017 87.455,103.198 87.678 L 103.528 88.083 103.246 87.572 C 103.091 87.291,102.816 86.879,102.635 86.656 L 102.306 86.250 102.587 86.761 M227.083 87.833 C 227.535 88.292,227.942 88.667,227.987 88.667 C 228.033 88.667,227.701 88.292,227.250 87.833 C 226.799 87.375,226.392 87.000,226.346 87.000 C 226.300 87.000,226.632 87.375,227.083 87.833 M185.998 88.792 C 183.484 92.416,179.238 96.975,176.125 99.395 C 174.771 100.447,174.084 101.109,175.125 100.359 C 178.848 97.676,185.213 90.857,186.855 87.792 C 187.192 87.164,186.855 87.558,185.998 88.792 M282.073 88.042 L 281.583 88.583 282.125 88.094 C 282.630 87.638,282.743 87.500,282.615 87.500 C 282.586 87.500,282.342 87.744,282.073 88.042 M104.258 89.288 C 106.356 92.288,110.417 96.721,112.833 98.648 C 113.350 99.060,113.132 98.813,112.333 98.081 C 109.248 95.255,105.928 91.538,104.185 88.958 C 103.891 88.523,103.611 88.167,103.562 88.167 C 103.514 88.167,103.827 88.671,104.258 89.288 M123.039 92.538 C 123.534 92.958,124.500 93.561,124.500 93.450 C 124.500 93.412,124.069 93.104,123.542 92.765 C 123.015 92.427,122.788 92.325,123.039 92.538 M125.500 94.075 C 125.500 94.121,125.725 94.274,126.000 94.417 C 126.275 94.559,126.500 94.638,126.500 94.592 C 126.500 94.546,126.275 94.392,126.000 94.250 C 125.725 94.108,125.500 94.029,125.500 94.075 M126.907 94.922 C 127.085 95.057,127.305 95.167,127.397 95.167 C 127.489 95.167,127.418 95.057,127.240 94.922 C 127.062 94.787,126.842 94.677,126.750 94.677 C 126.658 94.677,126.729 94.787,126.907 94.922 M219.000 95.385 C 219.000 95.414,219.244 95.658,219.542 95.927 L 220.083 96.417 219.594 95.875 C 219.138 95.370,219.000 95.257,219.000 95.385 M129.333 96.083 C 129.563 96.214,129.825 96.322,129.917 96.322 C 130.008 96.322,129.896 96.214,129.667 96.083 C 129.438 95.952,129.175 95.845,129.083 95.845 C 128.992 95.845,129.104 95.952,129.333 96.083 M130.750 96.650 C 131.117 96.822,131.604 97.009,131.833 97.065 C 132.063 97.121,131.950 97.028,131.583 96.858 C 131.216 96.688,130.728 96.501,130.499 96.443 C 130.271 96.385,130.383 96.478,130.750 96.650 M157.333 97.250 C 157.012 97.374,156.862 97.477,157.000 97.480 C 157.137 97.483,157.475 97.382,157.750 97.256 C 158.394 96.961,158.094 96.957,157.333 97.250 M132.500 97.333 C 132.637 97.422,132.862 97.495,133.000 97.495 C 133.222 97.495,133.222 97.477,133.000 97.333 C 132.862 97.244,132.637 97.172,132.500 97.172 C 132.278 97.172,132.278 97.190,132.500 97.333 M287.906 97.708 L 287.417 98.250 287.958 97.760 C 288.463 97.304,288.577 97.167,288.448 97.167 C 288.419 97.167,288.175 97.410,287.906 97.708 M134.167 97.812 C 134.304 97.894,134.679 98.008,135.000 98.065 C 135.394 98.135,135.475 98.122,135.250 98.026 C 134.735 97.805,133.871 97.635,134.167 97.812 M155.083 97.921 C 154.717 98.042,154.567 98.141,154.750 98.141 C 154.933 98.141,155.346 98.040,155.667 97.917 C 156.415 97.629,155.960 97.632,155.083 97.921 M136.750 98.500 C 136.933 98.579,137.233 98.641,137.417 98.638 C 137.685 98.634,137.668 98.607,137.333 98.500 C 136.763 98.317,136.325 98.317,136.750 98.500 M152.667 98.500 C 152.337 98.606,152.319 98.633,152.583 98.633 C 152.767 98.633,153.104 98.573,153.333 98.500 C 153.663 98.394,153.681 98.367,153.417 98.367 C 153.233 98.367,152.896 98.427,152.667 98.500 M148.500 99.100 L 146.750 99.314 148.333 99.231 C 149.204 99.185,150.179 99.084,150.500 99.007 C 151.334 98.807,150.618 98.840,148.500 99.100 M140.833 99.164 C 141.801 99.308,143.437 99.377,143.319 99.270 C 143.281 99.235,142.500 99.166,141.583 99.117 C 140.379 99.053,140.171 99.066,140.833 99.164 M113.957 99.519 C 114.256 99.898,117.833 102.447,117.833 102.281 C 117.833 102.241,117.290 101.825,116.625 101.357 C 115.960 100.890,115.042 100.225,114.583 99.881 C 114.125 99.537,113.843 99.374,113.957 99.519 M173.333 101.438 C 172.255 102.189,171.662 102.685,172.167 102.415 C 172.597 102.185,174.500 100.820,174.500 100.742 C 174.500 100.628,174.492 100.632,173.333 101.438 M118.250 102.586 C 118.433 102.736,118.733 102.931,118.917 103.021 L 119.250 103.185 118.917 102.914 C 118.733 102.764,118.433 102.569,118.250 102.479 L 117.917 102.315 118.250 102.586 M170.528 103.245 C 168.991 104.160,168.754 104.398,170.113 103.661 C 171.064 103.146,172.029 102.501,171.833 102.512 C 171.787 102.515,171.200 102.844,170.528 103.245 M120.167 103.744 C 120.167 103.790,120.542 104.018,121.000 104.250 C 121.458 104.482,121.833 104.635,121.833 104.589 C 121.833 104.543,121.458 104.316,121.000 104.083 C 120.542 103.851,120.167 103.699,120.167 103.744 M167.958 104.677 C 167.431 104.949,167.000 105.209,167.000 105.255 C 167.000 105.301,167.450 105.111,168.000 104.833 C 168.550 104.556,169.000 104.292,169.000 104.248 C 169.000 104.136,169.031 104.124,167.958 104.677 M166.000 105.667 C 165.679 105.842,165.492 105.986,165.583 105.986 C 165.675 105.986,166.012 105.842,166.333 105.667 C 166.654 105.491,166.842 105.347,166.750 105.347 C 166.658 105.347,166.321 105.491,166.000 105.667 M124.667 106.056 C 124.667 106.099,124.909 106.218,125.205 106.322 C 125.500 106.425,125.669 106.440,125.580 106.357 C 125.390 106.179,124.667 105.941,124.667 106.056 M164.667 106.250 C 164.438 106.381,164.325 106.488,164.417 106.488 C 164.508 106.488,164.771 106.381,165.000 106.250 C 165.229 106.119,165.342 106.012,165.250 106.012 C 165.158 106.012,164.896 106.119,164.667 106.250 M126.667 106.904 C 127.131 107.184,127.496 107.257,127.242 107.019 C 127.155 106.937,126.896 106.822,126.667 106.762 L 126.250 106.653 126.667 106.904 M161.531 107.447 C 161.136 107.587,160.842 107.731,160.878 107.767 C 160.954 107.843,162.500 107.335,162.500 107.234 C 162.500 107.130,162.310 107.172,161.531 107.447 M128.477 107.590 C 128.786 107.724,129.123 107.830,129.227 107.827 C 129.332 107.823,129.164 107.711,128.856 107.577 C 128.547 107.443,128.210 107.336,128.106 107.340 C 128.002 107.343,128.169 107.456,128.477 107.590 M159.667 108.083 C 159.346 108.207,159.196 108.308,159.333 108.308 C 159.471 108.308,159.846 108.207,160.167 108.083 C 160.487 107.960,160.637 107.859,160.500 107.859 C 160.362 107.859,159.987 107.960,159.667 108.083 M130.167 108.167 C 130.304 108.256,130.529 108.328,130.667 108.328 C 130.889 108.328,130.889 108.310,130.667 108.167 C 130.529 108.078,130.304 108.005,130.167 108.005 C 129.944 108.005,129.944 108.023,130.167 108.167 M131.917 108.644 C 132.100 108.724,132.512 108.838,132.833 108.896 C 133.234 108.968,133.312 108.956,133.083 108.856 C 132.900 108.776,132.487 108.662,132.167 108.604 C 131.766 108.532,131.688 108.544,131.917 108.644 M157.357 108.691 C 157.049 108.780,156.835 108.890,156.881 108.936 C 156.927 108.983,157.329 108.908,157.774 108.772 C 158.654 108.502,158.272 108.428,157.357 108.691 M134.667 109.333 C 134.896 109.407,135.233 109.467,135.417 109.467 C 135.681 109.467,135.663 109.439,135.333 109.333 C 135.104 109.260,134.767 109.200,134.583 109.200 C 134.319 109.200,134.337 109.228,134.667 109.333 M154.667 109.333 L 154.250 109.467 154.667 109.467 C 154.896 109.467,155.271 109.407,155.500 109.333 L 155.917 109.200 155.500 109.200 C 155.271 109.200,154.896 109.260,154.667 109.333 M138.667 110.009 C 139.672 110.187,140.461 110.172,139.583 109.990 C 139.217 109.915,138.692 109.858,138.417 109.864 C 138.042 109.872,138.104 109.908,138.667 110.009 M150.333 110.000 C 149.464 110.183,150.477 110.190,151.500 110.009 L 152.250 109.875 151.583 109.876 C 151.217 109.877,150.654 109.932,150.333 110.000 M141.544 110.286 C 141.797 110.325,142.172 110.324,142.377 110.284 C 142.582 110.244,142.375 110.213,141.917 110.214 C 141.458 110.216,141.291 110.248,141.544 110.286 M147.708 110.286 C 147.960 110.324,148.373 110.324,148.625 110.286 C 148.877 110.248,148.671 110.217,148.167 110.217 C 147.662 110.217,147.456 110.248,147.708 110.286 " stroke="none" fill="#646464" fill-rule="evenodd"></path></g></svg>